<mxfile host="app.diagrams.net" modified="2023-08-29T18:23:59.449Z" agent="Mozilla/5.0 (Windows NT 10.0; Win64; x64) AppleWebKit/537.36 (KHTML, like Gecko) Chrome/116.0.0.0 Safari/537.36" etag="iFvlvT6iTUyVHBxplqwu" version="21.6.9" type="device">
  <diagram name="PÃ¡gina-1" id="WUH2c7AhgpbHm2RwtOD_">
    <mxGraphModel dx="2261" dy="758" grid="1" gridSize="10" guides="1" tooltips="1" connect="1" arrows="1" fold="1" page="1" pageScale="1" pageWidth="827" pageHeight="1169" math="0" shadow="0">
      <root>
        <mxCell id="0" />
        <mxCell id="1" parent="0" />
        <mxCell id="1t_bR3Fs4sGfP2hQAQ33-1" value="Deployment engine diagram" style="text;strokeColor=none;fillColor=none;html=1;fontSize=24;fontStyle=1;verticalAlign=middle;align=center;" vertex="1" parent="1">
          <mxGeometry x="20" y="40" width="100" height="40" as="geometry" />
        </mxCell>
        <mxCell id="1t_bR3Fs4sGfP2hQAQ33-2" value="Project: Educational assessment engine" style="text;align=center;fontStyle=1;verticalAlign=middle;spacingLeft=3;spacingRight=3;strokeColor=none;rotatable=0;points=[[0,0.5],[1,0.5]];portConstraint=eastwest;html=1;" vertex="1" parent="1">
          <mxGeometry x="-14" y="70" width="80" height="26" as="geometry" />
        </mxCell>
        <mxCell id="1t_bR3Fs4sGfP2hQAQ33-3" value="" style="shape=cube;whiteSpace=wrap;html=1;boundedLbl=1;backgroundOutline=1;darkOpacity=0.05;darkOpacity2=0.1;" vertex="1" parent="1">
          <mxGeometry x="180" y="110" width="180" height="310" as="geometry" />
        </mxCell>
        <mxCell id="1t_bR3Fs4sGfP2hQAQ33-4" value="" style="shape=module;align=left;spacingLeft=20;align=center;verticalAlign=top;whiteSpace=wrap;html=1;" vertex="1" parent="1">
          <mxGeometry x="220" y="187" width="120" height="70" as="geometry" />
        </mxCell>
        <mxCell id="1t_bR3Fs4sGfP2hQAQ33-5" value="" style="shape=module;align=left;spacingLeft=20;align=center;verticalAlign=top;whiteSpace=wrap;html=1;" vertex="1" parent="1">
          <mxGeometry x="220" y="290" width="120" height="70" as="geometry" />
        </mxCell>
        <mxCell id="1t_bR3Fs4sGfP2hQAQ33-6" value="&lt;b&gt;Service App&lt;/b&gt;" style="text;html=1;strokeColor=none;fillColor=none;align=center;verticalAlign=middle;whiteSpace=wrap;rounded=0;" vertex="1" parent="1">
          <mxGeometry x="250" y="207" width="80" height="30" as="geometry" />
        </mxCell>
        <mxCell id="1t_bR3Fs4sGfP2hQAQ33-7" value="&lt;b&gt;Version Control&lt;/b&gt;" style="text;html=1;strokeColor=none;fillColor=none;align=center;verticalAlign=middle;whiteSpace=wrap;rounded=0;" vertex="1" parent="1">
          <mxGeometry x="245" y="300" width="70" height="40" as="geometry" />
        </mxCell>
        <mxCell id="1t_bR3Fs4sGfP2hQAQ33-8" value="" style="endArrow=none;html=1;rounded=0;" edge="1" parent="1">
          <mxGeometry width="50" height="50" relative="1" as="geometry">
            <mxPoint y="325" as="sourcePoint" />
            <mxPoint x="200" y="324.5" as="targetPoint" />
          </mxGeometry>
        </mxCell>
        <mxCell id="1t_bR3Fs4sGfP2hQAQ33-9" value="&lt;font style=&quot;font-size: 12px;&quot;&gt;&amp;lt;&amp;lt;build artefacts&amp;gt;&amp;gt;&lt;/font&gt;" style="edgeLabel;html=1;align=center;verticalAlign=middle;resizable=0;points=[];" vertex="1" connectable="0" parent="1t_bR3Fs4sGfP2hQAQ33-8">
          <mxGeometry x="-0.11" y="-1" relative="1" as="geometry">
            <mxPoint as="offset" />
          </mxGeometry>
        </mxCell>
        <mxCell id="1t_bR3Fs4sGfP2hQAQ33-10" value="" style="endArrow=block;html=1;rounded=0;endFill=1;" edge="1" parent="1">
          <mxGeometry width="50" height="50" relative="1" as="geometry">
            <mxPoint y="326" as="sourcePoint" />
            <mxPoint y="520" as="targetPoint" />
          </mxGeometry>
        </mxCell>
        <mxCell id="1t_bR3Fs4sGfP2hQAQ33-11" value="" style="shape=cube;whiteSpace=wrap;html=1;boundedLbl=1;backgroundOutline=1;darkOpacity=0.05;darkOpacity2=0.1;" vertex="1" parent="1">
          <mxGeometry x="-80" y="520" width="180" height="360" as="geometry" />
        </mxCell>
        <mxCell id="1t_bR3Fs4sGfP2hQAQ33-12" value="&lt;b&gt;Staging ENV&lt;/b&gt;" style="text;html=1;strokeColor=none;fillColor=none;align=center;verticalAlign=middle;whiteSpace=wrap;rounded=0;" vertex="1" parent="1">
          <mxGeometry x="-20" y="550" width="80" height="30" as="geometry" />
        </mxCell>
        <mxCell id="1t_bR3Fs4sGfP2hQAQ33-13" value="" style="shape=module;align=left;spacingLeft=20;align=center;verticalAlign=top;whiteSpace=wrap;html=1;" vertex="1" parent="1">
          <mxGeometry x="-40" y="585" width="120" height="70" as="geometry" />
        </mxCell>
        <mxCell id="1t_bR3Fs4sGfP2hQAQ33-14" value="AppServer" style="text;html=1;strokeColor=none;fillColor=none;align=center;verticalAlign=middle;whiteSpace=wrap;rounded=0;" vertex="1" parent="1">
          <mxGeometry x="-10" y="605" width="80" height="30" as="geometry" />
        </mxCell>
        <mxCell id="1t_bR3Fs4sGfP2hQAQ33-15" value="" style="shape=module;align=left;spacingLeft=20;align=center;verticalAlign=top;whiteSpace=wrap;html=1;" vertex="1" parent="1">
          <mxGeometry x="-40" y="670" width="120" height="70" as="geometry" />
        </mxCell>
        <mxCell id="1t_bR3Fs4sGfP2hQAQ33-16" value="Build#1" style="text;html=1;strokeColor=none;fillColor=none;align=center;verticalAlign=middle;whiteSpace=wrap;rounded=0;" vertex="1" parent="1">
          <mxGeometry x="-10" y="690" width="80" height="30" as="geometry" />
        </mxCell>
        <mxCell id="1t_bR3Fs4sGfP2hQAQ33-17" value="" style="shape=module;align=left;spacingLeft=20;align=center;verticalAlign=top;whiteSpace=wrap;html=1;" vertex="1" parent="1">
          <mxGeometry x="-40" y="770" width="120" height="70" as="geometry" />
        </mxCell>
        <mxCell id="1t_bR3Fs4sGfP2hQAQ33-18" value="Build#x" style="text;html=1;strokeColor=none;fillColor=none;align=center;verticalAlign=middle;whiteSpace=wrap;rounded=0;" vertex="1" parent="1">
          <mxGeometry x="-10" y="790" width="80" height="30" as="geometry" />
        </mxCell>
        <mxCell id="1t_bR3Fs4sGfP2hQAQ33-19" value="" style="shape=cube;whiteSpace=wrap;html=1;boundedLbl=1;backgroundOutline=1;darkOpacity=0.05;darkOpacity2=0.1;" vertex="1" parent="1">
          <mxGeometry x="200" y="521" width="180" height="360" as="geometry" />
        </mxCell>
        <mxCell id="1t_bR3Fs4sGfP2hQAQ33-20" value="&lt;b&gt;Preprod ENV&lt;/b&gt;" style="text;html=1;strokeColor=none;fillColor=none;align=center;verticalAlign=middle;whiteSpace=wrap;rounded=0;" vertex="1" parent="1">
          <mxGeometry x="260" y="551" width="80" height="30" as="geometry" />
        </mxCell>
        <mxCell id="1t_bR3Fs4sGfP2hQAQ33-21" value="" style="shape=module;align=left;spacingLeft=20;align=center;verticalAlign=top;whiteSpace=wrap;html=1;" vertex="1" parent="1">
          <mxGeometry x="240" y="586" width="120" height="70" as="geometry" />
        </mxCell>
        <mxCell id="1t_bR3Fs4sGfP2hQAQ33-22" value="AppServer" style="text;html=1;strokeColor=none;fillColor=none;align=center;verticalAlign=middle;whiteSpace=wrap;rounded=0;" vertex="1" parent="1">
          <mxGeometry x="270" y="606" width="80" height="30" as="geometry" />
        </mxCell>
        <mxCell id="1t_bR3Fs4sGfP2hQAQ33-23" value="" style="shape=module;align=left;spacingLeft=20;align=center;verticalAlign=top;whiteSpace=wrap;html=1;" vertex="1" parent="1">
          <mxGeometry x="240" y="671" width="120" height="70" as="geometry" />
        </mxCell>
        <mxCell id="1t_bR3Fs4sGfP2hQAQ33-24" value="Build#1" style="text;html=1;strokeColor=none;fillColor=none;align=center;verticalAlign=middle;whiteSpace=wrap;rounded=0;" vertex="1" parent="1">
          <mxGeometry x="270" y="691" width="80" height="30" as="geometry" />
        </mxCell>
        <mxCell id="1t_bR3Fs4sGfP2hQAQ33-25" value="" style="shape=module;align=left;spacingLeft=20;align=center;verticalAlign=top;whiteSpace=wrap;html=1;" vertex="1" parent="1">
          <mxGeometry x="240" y="771" width="120" height="70" as="geometry" />
        </mxCell>
        <mxCell id="1t_bR3Fs4sGfP2hQAQ33-26" value="Build#x" style="text;html=1;strokeColor=none;fillColor=none;align=center;verticalAlign=middle;whiteSpace=wrap;rounded=0;" vertex="1" parent="1">
          <mxGeometry x="270" y="791" width="80" height="30" as="geometry" />
        </mxCell>
        <mxCell id="1t_bR3Fs4sGfP2hQAQ33-27" value="" style="shape=cube;whiteSpace=wrap;html=1;boundedLbl=1;backgroundOutline=1;darkOpacity=0.05;darkOpacity2=0.1;" vertex="1" parent="1">
          <mxGeometry x="480" y="520" width="180" height="360" as="geometry" />
        </mxCell>
        <mxCell id="1t_bR3Fs4sGfP2hQAQ33-28" value="&lt;b&gt;Productive ENV&lt;/b&gt;" style="text;html=1;strokeColor=none;fillColor=none;align=center;verticalAlign=middle;whiteSpace=wrap;rounded=0;" vertex="1" parent="1">
          <mxGeometry x="540" y="550" width="100" height="30" as="geometry" />
        </mxCell>
        <mxCell id="1t_bR3Fs4sGfP2hQAQ33-29" value="" style="shape=module;align=left;spacingLeft=20;align=center;verticalAlign=top;whiteSpace=wrap;html=1;" vertex="1" parent="1">
          <mxGeometry x="520" y="585" width="120" height="70" as="geometry" />
        </mxCell>
        <mxCell id="1t_bR3Fs4sGfP2hQAQ33-30" value="AppServer" style="text;html=1;strokeColor=none;fillColor=none;align=center;verticalAlign=middle;whiteSpace=wrap;rounded=0;" vertex="1" parent="1">
          <mxGeometry x="550" y="605" width="80" height="30" as="geometry" />
        </mxCell>
        <mxCell id="1t_bR3Fs4sGfP2hQAQ33-31" value="" style="shape=module;align=left;spacingLeft=20;align=center;verticalAlign=top;whiteSpace=wrap;html=1;" vertex="1" parent="1">
          <mxGeometry x="520" y="670" width="120" height="70" as="geometry" />
        </mxCell>
        <mxCell id="1t_bR3Fs4sGfP2hQAQ33-32" value="Build#1" style="text;html=1;strokeColor=none;fillColor=none;align=center;verticalAlign=middle;whiteSpace=wrap;rounded=0;" vertex="1" parent="1">
          <mxGeometry x="550" y="690" width="80" height="30" as="geometry" />
        </mxCell>
        <mxCell id="1t_bR3Fs4sGfP2hQAQ33-33" value="" style="shape=module;align=left;spacingLeft=20;align=center;verticalAlign=top;whiteSpace=wrap;html=1;" vertex="1" parent="1">
          <mxGeometry x="520" y="770" width="120" height="70" as="geometry" />
        </mxCell>
        <mxCell id="1t_bR3Fs4sGfP2hQAQ33-34" value="Build#x" style="text;html=1;strokeColor=none;fillColor=none;align=center;verticalAlign=middle;whiteSpace=wrap;rounded=0;" vertex="1" parent="1">
          <mxGeometry x="550" y="790" width="80" height="30" as="geometry" />
        </mxCell>
        <mxCell id="1t_bR3Fs4sGfP2hQAQ33-35" value="" style="endArrow=none;html=1;rounded=0;" edge="1" parent="1">
          <mxGeometry width="50" height="50" relative="1" as="geometry">
            <mxPoint x="279.5" y="460" as="sourcePoint" />
            <mxPoint x="279.5" y="420" as="targetPoint" />
          </mxGeometry>
        </mxCell>
        <mxCell id="1t_bR3Fs4sGfP2hQAQ33-36" value="" style="endArrow=none;html=1;rounded=0;" edge="1" parent="1">
          <mxGeometry width="50" height="50" relative="1" as="geometry">
            <mxPoint x="140" y="460" as="sourcePoint" />
            <mxPoint x="440" y="460" as="targetPoint" />
          </mxGeometry>
        </mxCell>
        <mxCell id="1t_bR3Fs4sGfP2hQAQ33-37" value="" style="endArrow=block;html=1;rounded=0;endFill=1;" edge="1" parent="1">
          <mxGeometry width="50" height="50" relative="1" as="geometry">
            <mxPoint x="440" y="461" as="sourcePoint" />
            <mxPoint x="440" y="710" as="targetPoint" />
          </mxGeometry>
        </mxCell>
        <mxCell id="1t_bR3Fs4sGfP2hQAQ33-38" value="&lt;font style=&quot;font-size: 12px;&quot;&gt;&amp;lt;&amp;lt;initiate&amp;gt;&amp;gt;&lt;/font&gt;" style="edgeLabel;html=1;align=center;verticalAlign=middle;resizable=0;points=[];" vertex="1" connectable="0" parent="1t_bR3Fs4sGfP2hQAQ33-37">
          <mxGeometry x="-0.6569" y="1" relative="1" as="geometry">
            <mxPoint as="offset" />
          </mxGeometry>
        </mxCell>
        <mxCell id="1t_bR3Fs4sGfP2hQAQ33-39" value="" style="endArrow=block;html=1;rounded=0;endFill=1;" edge="1" parent="1">
          <mxGeometry width="50" height="50" relative="1" as="geometry">
            <mxPoint x="140" y="460" as="sourcePoint" />
            <mxPoint x="140" y="710" as="targetPoint" />
          </mxGeometry>
        </mxCell>
        <mxCell id="1t_bR3Fs4sGfP2hQAQ33-40" value="&lt;font style=&quot;font-size: 12px;&quot;&gt;&amp;lt;&amp;lt;initiate&amp;gt;&amp;gt;&lt;/font&gt;" style="edgeLabel;html=1;align=center;verticalAlign=middle;resizable=0;points=[];" vertex="1" connectable="0" parent="1t_bR3Fs4sGfP2hQAQ33-39">
          <mxGeometry x="-0.6569" y="1" relative="1" as="geometry">
            <mxPoint as="offset" />
          </mxGeometry>
        </mxCell>
        <mxCell id="1t_bR3Fs4sGfP2hQAQ33-42" value="" style="endArrow=classic;html=1;rounded=0;entryX=0;entryY=0.556;entryDx=0;entryDy=0;entryPerimeter=0;" edge="1" parent="1" target="1t_bR3Fs4sGfP2hQAQ33-19">
          <mxGeometry width="50" height="50" relative="1" as="geometry">
            <mxPoint x="100" y="721" as="sourcePoint" />
            <mxPoint x="160" y="721" as="targetPoint" />
          </mxGeometry>
        </mxCell>
        <mxCell id="1t_bR3Fs4sGfP2hQAQ33-43" value="&lt;font style=&quot;font-size: 12px;&quot;&gt;&amp;lt;&amp;lt;copy&amp;gt;&amp;gt;&lt;/font&gt;" style="edgeLabel;html=1;align=center;verticalAlign=middle;resizable=0;points=[];" vertex="1" connectable="0" parent="1t_bR3Fs4sGfP2hQAQ33-42">
          <mxGeometry x="-0.0999" y="-2" relative="1" as="geometry">
            <mxPoint y="-3" as="offset" />
          </mxGeometry>
        </mxCell>
        <mxCell id="1t_bR3Fs4sGfP2hQAQ33-44" value="" style="endArrow=classic;html=1;rounded=0;entryX=0;entryY=0.556;entryDx=0;entryDy=0;entryPerimeter=0;" edge="1" parent="1">
          <mxGeometry width="50" height="50" relative="1" as="geometry">
            <mxPoint x="380" y="722" as="sourcePoint" />
            <mxPoint x="480" y="722" as="targetPoint" />
          </mxGeometry>
        </mxCell>
        <mxCell id="1t_bR3Fs4sGfP2hQAQ33-45" value="&lt;font style=&quot;font-size: 12px;&quot;&gt;&amp;lt;&amp;lt;copy&amp;gt;&amp;gt;&lt;/font&gt;" style="edgeLabel;html=1;align=center;verticalAlign=middle;resizable=0;points=[];" vertex="1" connectable="0" parent="1t_bR3Fs4sGfP2hQAQ33-44">
          <mxGeometry x="-0.0999" y="-2" relative="1" as="geometry">
            <mxPoint y="-3" as="offset" />
          </mxGeometry>
        </mxCell>
        <mxCell id="1t_bR3Fs4sGfP2hQAQ33-46" value="&lt;b&gt;CI server&lt;/b&gt;" style="text;html=1;strokeColor=none;fillColor=none;align=center;verticalAlign=middle;whiteSpace=wrap;rounded=0;" vertex="1" parent="1">
          <mxGeometry x="240" y="140" width="60" height="30" as="geometry" />
        </mxCell>
      </root>
    </mxGraphModel>
  </diagram>
</mxfile>
